<?xml version="1.0" ?><svg viewBox="0 0 324.14 416.54" xmlns="http://www.w3.org/2000/svg"><defs><style>.cls-1{fill:none;stroke:#050505;stroke-miterlimit:10;stroke-width:10px;}</style></defs><title/><g data-name="Layer 2" id="Layer_2"><g data-name="Layer 1" id="Layer_1-2"><path class="cls-1" d="M208.82,122.25a68.36,68.36,0,1,0-95.53,0"/><path class="cls-1" d="M194.07,172.16h35.41a10,10,0,0,0,10-10V132.25a10,10,0,0,0-10-10H92.63a10,10,0,0,0-10,10v29.91a10,10,0,0,0,10,10H172.4"/><path class="cls-1" d="M68.59,313.59c.45-1,.89-1.94,1.33-2.92,25.82-57.87,33.17-138.51,33.17-138.51H172.4"/><path class="cls-1" d="M194.07,172.16h25s7.32,80.64,33.12,138.51c.44,1,.88,2,1.33,2.92"/><path class="cls-1" d="M55,310.67H267.09a20.26,20.26,0,0,1,20.26,20.26v42.88a0,0,0,0,1,0,0H34.76a0,0,0,0,1,0,0V330.94A20.26,20.26,0,0,1,55,310.67Z"/><path class="cls-1" d="M245.22,411.54h73.92a37.72,37.72,0,0,0-37.72-37.72H42.72A37.73,37.73,0,0,0,5,411.54H223.55"/><path class="cls-1" d="M161.05,42.27h4a29,29,0,0,1,29,29h0"/></g></g></svg>