<?xml version="1.0" ?><svg id="Layer_1_1_" style="enable-background:new 0 0 64 64;" version="1.1" viewBox="0 0 64 64" xml:space="preserve" xmlns="http://www.w3.org/2000/svg" xmlns:xlink="http://www.w3.org/1999/xlink"><g><g><path d="M58,13H42c0,1.105-0.895,2-2,2h-3l2,16h4v4h2v4H19v-4h2v-4h4l2-16h-3c-1.105,0-2-0.895-2-2H6    c-0.552,0-1,0.448-1,1v34h54V14C59,13.448,58.552,13,58,13z" style="fill:#00F4CB;"/></g><g><path d="M33.508,27.124C33.571,27.629,34.002,28,34.499,28c0.041,0,0.083-0.002,0.125-0.008c0.548-0.068,0.937-0.568,0.868-1.116    l-1-8c-0.069-0.548-0.567-0.939-1.116-0.868c-0.548,0.068-0.937,0.568-0.868,1.116L33.508,27.124z"/><path d="M58,9h-4c-0.553,0-1,0.448-1,1s0.447,1,1,1h4c1.654,0,3,1.346,3,3v33H3V14c0-1.654,1.346-3,3-3h4c0.553,0,1-0.448,1-1    s-0.447-1-1-1H6c-2.757,0-5,2.243-5,5v38c0,2.757,2.243,5,5,5h12v4h-4c-0.553,0-1,0.448-1,1s0.447,1,1,1h36c0.553,0,1-0.448,1-1    s-0.447-1-1-1h-4v-4h12c2.757,0,5-2.243,5-5V14C63,11.243,60.757,9,58,9z M44,61H20v-4h24V61z M58,55H6c-1.654,0-3-1.346-3-3v-3    h58v3C61,53.654,59.654,55,58,55z"/><path d="M18,11h3v2c0,1.654,1.346,3,3,3h1.867l-1.75,14H21c-0.553,0-1,0.448-1,1v3h-1c-0.553,0-1,0.448-1,1v4c0,0.552,0.447,1,1,1    h26c0.553,0,1-0.448,1-1v-4c0-0.552-0.447-1-1-1h-1v-3c0-0.552-0.447-1-1-1h-3.117l-1.75-14H40c1.654,0,3-1.346,3-3v-2h3    c0.553,0,1-0.448,1-1s-0.447-1-1-1h-3V5c0-0.552-0.447-1-1-1h-4c-0.553,0-1,0.448-1,1v5h-2V5c0-0.552-0.447-1-1-1h-4    c-0.553,0-1,0.448-1,1v5h-2V5c0-0.552-0.447-1-1-1h-4c-0.553,0-1,0.448-1,1v4h-3c-0.553,0-1,0.448-1,1S17.447,11,18,11z M44,38H20    v-2h24V38z M42,34H22v-2h20V34z M37.867,30H26.133l1.75-14h8.235L37.867,30z M23,6h2v5c0,0.552,0.447,1,1,1h4c0.553,0,1-0.448,1-1    V6h2v5c0,0.552,0.447,1,1,1h4c0.553,0,1-0.448,1-1V6h2v7c0,0.551-0.448,1-1,1H24c-0.552,0-1-0.449-1-1V6z"/><circle cx="50" cy="2" r="1"/><circle cx="54" cy="22" r="1"/><path d="M41,18c0,0.552,0.447,1,1,1h8c0.553,0,1-0.448,1-1V6c0-0.552-0.447-1-1-1s-1,0.448-1,1v11h-7C41.447,17,41,17.448,41,18z"/><circle cx="50" cy="38" r="1"/><path d="M51,26c0-0.552-0.447-1-1-1h-8c-0.553,0-1,0.448-1,1s0.447,1,1,1h7v7c0,0.552,0.447,1,1,1s1-0.448,1-1V26z"/><path d="M50,21h-8c-0.553,0-1,0.448-1,1s0.447,1,1,1h8c0.553,0,1-0.448,1-1S50.553,21,50,21z"/><circle cx="14" cy="2" r="1"/><circle cx="10" cy="22" r="1"/><path d="M14,19h8c0.553,0,1-0.448,1-1s-0.447-1-1-1h-7V6c0-0.552-0.447-1-1-1s-1,0.448-1,1v12C13,18.552,13.447,19,14,19z"/><circle cx="14" cy="38" r="1"/><path d="M14,35c0.553,0,1-0.448,1-1v-7h7c0.553,0,1-0.448,1-1s-0.447-1-1-1h-8c-0.553,0-1,0.448-1,1v8C13,34.552,13.447,35,14,35z    "/><path d="M14,23h8c0.553,0,1-0.448,1-1s-0.447-1-1-1h-8c-0.553,0-1,0.448-1,1S13.447,23,14,23z"/><path d="M40,51H24c-0.553,0-1,0.448-1,1s0.447,1,1,1h16c0.553,0,1-0.448,1-1S40.553,51,40,51z"/></g></g></svg>